<svg xmlns="http://www.w3.org/2000/svg" version="1.1" xmlns:xlink="http://www.w3.org/1999/xlink" xmlns:svgjs="http://svgjs.com/svgjs" width="1440" height="560" preserveAspectRatio="none" viewBox="0 0 1440 560"><g mask="url(&quot;#SvgjsMask1017&quot;)" fill="none"><rect width="1440" height="560" x="0" y="0" fill="#1e3266"></rect><path d="M1536 560L0 560 L0 401.92Q77.41 359.33, 120 436.73Q187.84 384.57, 240 452.41Q284.24 376.65, 360 420.89Q408.49 349.38, 480 397.87Q557.43 355.31, 600 432.74Q627.4 388.14, 672 415.55Q725.4 396.95, 744 450.35Q768.38 402.73, 816 427.11Q838.5 377.62, 888 400.12Q931.24 371.36, 960 414.6Q1003.83 386.43, 1032 430.26Q1097.66 375.92, 1152 441.59Q1170.3 387.88, 1224 406.18Q1295.9 358.09, 1344 429.99Q1387.22 401.21, 1416 444.42Q1456.87 365.29, 1536 406.16z" fill="#182f5d"></path><path d="M1488 560L0 560 L0 446.74Q55.99 382.73, 120 438.72Q203.76 402.49, 240 486.25Q270.96 445.21, 312 476.16Q360.86 405.02, 432 453.89Q512.02 413.91, 552 493.93Q599.88 421.81, 672 469.7Q701.43 427.13, 744 456.57Q796.01 436.58, 816 488.59Q854.35 406.93, 936 445.28Q983.13 420.41, 1008 467.54Q1081.63 421.17, 1128 494.79Q1180.2 426.99, 1248 479.19Q1297.57 408.75, 1368 458.32Q1445.35 415.67, 1488 493.02z" fill="#25467d"></path><path d="M1488 560L0 560 L0 479.95Q60.05 468, 72 528.05Q120.08 456.13, 192 504.21Q241.52 433.73, 312 483.24Q377.38 428.62, 432 494Q498.04 440.04, 552 506.09Q600.58 434.66, 672 483.24Q731.46 470.7, 744 530.16Q791.71 457.87, 864 505.58Q889.09 458.67, 936 483.76Q1017.32 445.08, 1056 526.4Q1109.19 459.59, 1176 512.78Q1228.3 445.07, 1296 497.37Q1350.07 431.44, 1416 485.51Q1471.44 468.95, 1488 524.39z" fill="#356cb1"></path><path d="M1464 560L0 560 L0 573.33Q10.23 511.56, 72 521.79Q143.07 472.86, 192 543.93Q240.45 520.38, 264 568.83Q279.58 512.41, 336 527.99Q404.16 476.15, 456 544.31Q500.97 517.27, 528 562.24Q542.8 505.04, 600 519.83Q641.21 489.04, 672 530.24Q729.34 515.58, 744 572.92Q768.88 525.79, 816 550.67Q863.9 478.57, 936 526.46Q993.1 511.56, 1008 568.65Q1030.17 518.82, 1080 540.99Q1109.6 498.59, 1152 528.18Q1223.64 479.83, 1272 551.47Q1326.32 485.79, 1392 540.11Q1422.37 498.48, 1464 528.84z" fill="white"></path></g><defs><mask id="SvgjsMask1017"><rect width="1440" height="560" fill="#ffffff"></rect></mask></defs></svg>